<svg xmlns="http://www.w3.org/2000/svg" viewBox="-30 -25 220 200">
  <rect x="-30" y="-25" width="220" height="200" rx="36" fill="#1f2720" />
  <path fill="#f6f0e3" d="M74.921 105.94c4.444 0 8.613-.411 14.97-8.91s26.524-36.124 26.524-36.124v69.162c0 8.979 3.213 14.12 16.679 14.12 13.467 0 16.68-5.072 16.68-14.12V16.147c0-12.27-7.793-13.846-16.68-13.846-8.886 0-12.373 1.44-17.363 8.02l-40.81 53.807S39.033 16.832 34.043 10.32C29.053 3.81 25.635 2.3 16.68 2.3S0 3.878 0 16.148v113.921c0 8.979 3.213 14.12 16.68 14.12s16.68-5.072 16.68-14.12V60.906S53.524 88.53 59.881 97.03c6.358 8.5 10.527 8.911 14.97 8.911z" />
</svg>
