<svg xmlns="http://www.w3.org/2000/svg" fill="none" class="w-full h-full" viewBox="0 0 606 147"><g fill="currentColor"><path d="M74.921 105.94c4.444 0 8.613-.411 14.97-8.91s26.524-36.124 26.524-36.124v69.162c0 8.979 3.213 14.12 16.679 14.12 13.467 0 16.68-5.072 16.68-14.12V16.147c0-12.27-7.793-13.846-16.68-13.846-8.886 0-12.373 1.44-17.363 8.02l-40.81 53.807S39.033 16.832 34.043 10.32C29.053 3.81 25.635 2.3 16.68 2.3S0 3.878 0 16.148v113.921c0 8.979 3.213 14.12 16.68 14.12s16.68-5.072 16.68-14.12V60.906S53.524 88.53 59.881 97.03c6.358 8.5 10.527 8.911 14.97 8.911zM248.62.246c38.623 0 69.931 32.696 69.931 73s-31.308 73-69.931 73-69.931-32.696-69.931-73 31.309-73 69.931-73m-35.751 73c0 21.386 15.996 38.728 35.751 38.728 19.756 0 35.752-17.342 35.752-38.728s-15.996-38.728-35.752-38.728c-19.755 0-35.751 17.342-35.751 38.728M468.873 73.177c0 11.104-1.914 23.305-9.639 36.055S439 131.097 430.592 135.553c-8.955 4.729-18.662 7.128-31.103 7.471-7.178.206-29.6.206-36.367.206-9.707 0-15.791-3.633-15.791-12.75V16.011c0-9.185 6.084-12.75 15.791-12.75 6.767 0 29.394 0 36.367.206 12.714.275 22.08 2.742 31.103 7.472 8.408 4.455 20.918 13.503 28.642 26.32 7.725 12.819 9.639 24.883 9.639 35.987zm-38.144-17.479c-2.598-4.592-7.656-10.213-14.082-13.914s-12.236-4.524-16.816-4.593h-18.799V109.3h18.799c4.58 0 10.527-.959 16.816-4.592s11.484-9.39 14.082-13.915c3.349-5.895 4.511-12.2 4.511-17.479 0-5.278-1.162-11.584-4.511-17.479zM585.082 73.11c-.205 13.024-4.512 16.931-14.218 16.931h-38.555v19.398s46.553.137 60.703.137c11.416 0 12.988 7.746 12.988 16.656 0 8.911-1.572 16.657-13.057 16.794-4.511 0-70.546.068-77.04.068-12.168 0-17.295-3.358-17.295-15.902V19.234c0-12.543 5.127-15.902 17.295-15.902 6.494 0 72.665.069 77.04.069C604.428 3.4 606 11.283 606 20.194s-1.641 16.793-12.988 16.793h-60.703v19.399h38.623c9.707 0 14.013 3.701 14.218 16.724z"/></g></svg>